<svg width="151" height="157" viewBox="0 0 151 157" fill="none" xmlns="http://www.w3.org/2000/svg">
<g clip-path="url(#clip0_311_2)">
<path d="M2.74916 90.5119C1.66019 82.9268 -1.49959 44.3581 41.0771 17.8504L47.834 31.5286L50.5297 30.7692C55.4122 29.5542 60.5267 28.902 65.793 28.902C100.515 28.902 128.667 57.0803 128.667 91.8342C128.667 126.588 100.515 154.766 65.793 154.766C31.0711 154.766 2.90982 126.597 2.90982 91.8342C2.90982 91.8342 29.5805 133.726 76.1917 117.815" stroke="black" stroke-width="5" stroke-miterlimit="10"/>
<path d="M2.74927 90.512C2.87423 91.3696 38.4084 105.593 58.0722 90.512C61.4105 87.9479 65.5253 86.2593 69.9348 85.491" stroke="black" stroke-width="5" stroke-miterlimit="10"/>
<path d="M75.8793 117.922C75.8793 117.922 92.3209 106.683 83.9394 98.4366C83.9394 98.4366 96.6142 94.72 104.157 102.368C104.157 102.368 89.1432 86.3576 59.3752 97.5342C59.8126 86.9383 72.9516 85.1068 72.9516 85.1068C71.934 85.1872 70.9343 85.3123 69.9436 85.491" stroke="black" stroke-width="5" stroke-miterlimit="10"/>
<path d="M104.157 102.368C104.157 102.368 107.888 108.979 107.245 117.1C106.647 124.658 105.388 133.664 100.818 144.108" stroke="black" stroke-width="5" stroke-miterlimit="10"/>
<path d="M34.3381 55.1238C34.3381 55.1238 49.0302 52.2648 51.5384 63.093C54.0555 73.9123 47.8163 78.3973 47.8163 78.3973C26.278 89.3684 26.9831 64.0043 26.9831 64.0043C26.9831 64.0043 32.5886 72.8134 39.5598 67.7835C46.5309 62.7535 34.3381 55.1238 34.3381 55.1238Z" fill="black"/>
<path d="M76.4148 26.3736C90.732 26.7399 97.4889 31.6001 97.4889 31.6001L98.4618 3.04653L76.6469 2.30499L76.4237 26.3647L76.4148 26.3736Z" stroke="black" stroke-width="5" stroke-miterlimit="10"/>
<path d="M101.184 33.6818C101.184 33.6818 111.574 35.5044 118.206 47.7352L146.18 48.6822L148.644 4.74404L102.22 3.17163L101.184 33.6729V33.6818Z" stroke="black" stroke-width="5" stroke-miterlimit="10"/>
<path d="M120.545 52.1487C120.545 52.1487 127.266 58.9565 129.872 72.322L145.868 72.867L146.082 52.6311L120.554 52.1487H120.545Z" stroke="black" stroke-width="5" stroke-miterlimit="10"/>
<path d="M104.906 100.491C103.184 100.491 103.184 103.172 104.906 103.172C106.629 103.172 106.629 100.491 104.906 100.491Z" fill="black"/>
<path d="M76.3523 117.35C76.0846 117.35 75.8614 117.422 75.674 117.529C74.2547 117.815 74.344 120.182 75.9685 120.182C76.2363 120.182 76.4594 120.111 76.6469 120.004C78.0661 119.718 77.9768 117.35 76.3523 117.35Z" fill="black"/>
<path d="M133.907 49.7811C130.158 49.7097 126.373 49.665 122.66 49.0485C120.946 48.7627 119.259 48.2445 117.528 48.1015C117.313 48.0837 117.108 48.1015 116.903 48.1015C116.171 47.3064 115.421 46.5112 114.68 45.7072C114.234 44.9478 113.752 44.2062 113.243 43.4915C113.573 43.3932 113.895 43.2503 114.198 43.0359C114.993 42.4551 115.127 41.2758 114.198 40.7219C111.851 39.3282 109.503 37.9344 106.986 36.8534C104.549 35.8081 102.041 35.004 99.6312 33.8873C94.9897 31.7431 90.4464 29.2415 85.3854 28.2319C83.6984 27.8925 82.9843 30.4834 84.6713 30.8139C89.643 31.8056 94.0614 34.2714 98.6315 36.362C99.167 36.6033 99.7026 36.8355 100.238 37.05C99.9614 37.5324 99.9436 38.1667 100.417 38.6492C104.308 42.5713 108.709 45.9663 113.493 48.718C113.199 48.8252 112.913 48.9324 112.627 49.0575C111.61 49.5221 111.922 50.8354 112.627 51.3714C115.546 53.5692 117.867 56.4371 119.509 59.6891C119.956 60.5647 121.071 60.4664 121.66 59.8946C123.669 63.9507 124.981 68.4089 126.239 72.733C126.721 74.3858 129.31 73.68 128.819 72.0183C126.632 64.5136 124.231 56.7498 118.759 50.9426C120.384 51.1927 122.017 51.6663 123.588 51.8717C127.016 52.3274 130.461 52.3989 133.916 52.4614C135.638 52.4971 135.638 49.8169 133.916 49.7811H133.907Z" fill="black"/>
</g>
<defs>
<clipPath id="clip0_311_2">
<rect width="151" height="157" fill="white"/>
</clipPath>
</defs>
</svg>
