<svg width="227" height="106" viewBox="0 0 227 106" fill="none" xmlns="http://www.w3.org/2000/svg">
<path d="M122.019 59.873C121.648 59.9723 121.354 60.029 121.137 60.043C120.946 60.0721 120.723 60.0655 120.469 60.0232C120.189 59.9659 119.956 59.8404 119.772 59.6468C119.706 59.3996 119.786 59.2456 120.013 59.1848C120.239 59.1241 120.547 59.1189 120.936 59.1693C121.31 59.2458 121.61 59.2537 121.837 59.193C122.29 59.0715 122.653 58.7756 122.924 58.3053C123.216 57.8295 123.385 57.2652 123.431 56.6124C123.529 55.3274 123.456 54.2315 123.213 53.3248C122.942 52.3151 122.525 51.3338 121.96 50.3807C121.396 49.4277 120.755 48.5614 120.038 47.7817C119.874 47.5826 119.608 47.2895 119.239 46.9025C118.448 46.0102 117.841 45.3114 117.419 44.8062C116.996 44.301 116.588 43.7257 116.194 43.0803C115.657 42.2303 115.245 41.2696 114.958 40.198C114.776 39.518 114.705 38.8413 114.746 38.1679C114.801 37.4684 115.005 36.8284 115.357 36.2481C115.746 35.6361 116.259 35.2445 116.898 35.0734C117.145 35.0071 117.472 35.0301 117.877 35.1423C118.277 35.2339 118.502 35.3724 118.552 35.5579C118.596 35.7227 118.556 35.8217 118.432 35.8548C118.309 35.888 118.13 35.8806 117.897 35.8328C117.683 35.7795 117.494 35.7749 117.33 35.819C116.856 35.946 116.48 36.2344 116.203 36.6841C115.947 37.1283 115.805 37.63 115.778 38.1893C115.75 38.6607 115.805 39.154 115.943 39.6692C116.158 40.4728 116.485 41.2798 116.923 42.09C117.355 42.8797 117.846 43.5985 118.395 44.2464L120.082 46.213L120.565 46.7792C121.235 47.5494 121.76 48.1926 122.142 48.7088C122.544 49.2195 122.924 49.8134 123.282 50.4905C123.768 51.3982 124.13 52.2951 124.367 53.1812C124.687 54.3764 124.704 55.675 124.417 57.077C124.268 57.7574 123.986 58.3521 123.57 58.8611C123.154 59.37 122.637 59.7073 122.019 59.873ZM132.21 56.6453C131.786 56.6265 131.399 56.5425 131.05 56.3931C130.721 56.2382 130.372 55.9672 130.004 55.5801C129.35 54.8718 128.775 53.756 128.278 52.2326C128.049 51.543 127.863 50.9303 127.72 50.3946L126.775 46.8709C126.417 45.5315 126.11 44.2222 125.855 42.9431C125.669 41.9993 125.552 41.1914 125.504 40.5195C125.457 39.8475 125.481 39.1563 125.578 38.4457C125.69 37.709 125.885 37.1598 126.164 36.798C126.275 36.6357 126.514 36.417 126.882 36.1417C127.122 35.9669 127.35 35.7845 127.564 35.5946L128.8 35.2633L128.893 35.2385C128.919 35.2536 128.953 35.2556 128.994 35.2445L129.157 35.234L129.305 35.2936C129.384 35.3389 129.426 35.3718 129.431 35.3924C129.463 35.4281 129.49 35.4872 129.512 35.5696L129.234 36.1409L127.936 36.4888C127.544 36.5937 127.236 36.8861 127.011 37.3659C126.802 37.8197 126.692 38.3571 126.681 38.9783C126.655 39.5376 126.684 40.1814 126.768 40.9096C126.853 41.6378 126.954 42.2623 127.071 42.783C127.207 43.4534 127.308 43.9123 127.374 44.1596L127.354 44.3307C127.663 45.4846 127.921 46.5308 128.128 47.4691L128.903 50.6075C129.146 51.5142 129.431 52.3322 129.759 53.0615C130.083 53.8582 130.581 54.5199 131.252 55.0468C131.903 55.5792 132.723 55.7129 133.712 55.4479C134.021 55.3651 134.253 55.2033 134.41 54.9627C134.719 54.8798 134.904 54.9518 134.965 55.1784C135.003 55.3227 134.913 55.5234 134.695 55.7807C134.503 56.053 134.287 56.2765 134.047 56.4514L133.027 56.7247L132.21 56.6453ZM143.508 53.7838C143.189 53.5822 142.73 52.943 142.133 51.8664C141.535 50.7897 140.919 49.5633 140.285 48.1871C139.806 47.0567 139.257 45.9559 138.639 44.8848C138.115 43.9207 137.74 43.4691 137.514 43.5298L137.421 43.5546C136.967 43.6761 136.779 43.8811 136.857 44.1696C137.254 45.6533 137.941 47.8876 138.918 50.8725C139.497 52.705 139.88 53.762 140.066 54.0435L139.959 54.6352L139.526 54.7512L139.213 54.5702C136.332 45.1383 134.428 38.6915 133.501 35.2296C133.44 35.0029 133.4 34.8147 133.382 34.665C133.385 34.5097 133.421 34.3564 133.491 34.2052C133.535 34.0388 133.66 33.9281 133.866 33.8728C134.917 33.5912 135.831 33.6224 136.608 33.9664C137.384 34.3104 137.903 34.9667 138.162 35.9352L138.767 38.1916C138.872 38.5831 138.878 39.1445 138.787 39.8756C138.717 40.6013 138.601 41.2837 138.441 41.9229L138.247 42.8033C138.755 43.7935 139.706 45.5706 141.1 48.1346C142.508 50.6724 143.266 52.0155 143.372 52.1638C143.398 52.1789 143.432 52.2248 143.475 52.3018C143.538 52.3731 143.644 52.4774 143.791 52.6147C144.012 52.8645 144.151 53.0925 144.206 53.2985C144.283 53.587 144.209 53.7617 143.982 53.8224L143.508 53.7838ZM136.688 42.9227C137.08 42.8178 137.378 42.5282 137.582 42.0538C137.786 41.5795 137.898 41.0084 137.918 40.3405C137.911 38.9951 137.808 37.9516 137.609 37.2097C137.482 36.7358 137.346 36.3525 137.202 36.06C137.078 35.762 136.907 35.4543 136.689 35.1372C136.249 34.4822 135.565 34.2789 134.638 34.5274C134.535 34.555 134.477 34.6698 134.465 34.8719C134.447 35.0533 134.463 35.2367 134.513 35.4222C134.883 36.8028 135.238 38.044 135.577 39.1457C135.896 40.2529 136.24 41.4968 136.61 42.8774L136.688 42.9227ZM151.016 52.0038C148.605 52.6498 146.384 49.1813 144.352 41.5981L144.062 40.5163C142.521 34.7671 142.493 31.6937 143.977 31.2962C144.08 31.2685 144.232 31.2608 144.434 31.2729C145.154 31.3229 145.842 31.2932 146.498 31.1839C146.911 31.1614 147.41 31.4583 147.995 32.0746C148.627 32.7005 149.208 33.5937 149.74 34.7543C150.293 35.9093 150.74 37.1257 151.082 38.4033L151.062 38.5744C151.244 39.2544 151.417 39.8595 151.581 40.3898L152.109 42.2361C152.391 43.287 152.604 44.2459 152.748 45.1129C152.966 46.4236 153.056 47.5813 153.016 48.5858C152.979 49.1919 152.887 49.7135 152.739 50.1507C152.612 50.5824 152.406 50.9688 152.122 51.3099C151.859 51.6455 151.49 51.8768 151.016 52.0038ZM150.652 51.1406C151.456 50.9252 151.902 50.1984 151.99 48.9602C152.072 47.7013 151.994 46.4632 151.756 45.246C151.507 43.9875 151.284 42.9874 151.085 42.2455C150.864 41.4213 150.476 40.2221 149.922 38.6479C149.339 36.8827 148.961 35.6808 148.79 35.042L148.6 34.8278L148.621 34.6567C148.378 33.75 147.91 33.036 147.219 32.5146C146.547 31.9877 145.851 31.8209 145.13 32.0142C144.182 32.2682 143.737 32.8733 143.794 33.8297C143.836 34.1499 143.913 34.6039 144.027 35.192C144.435 36.7168 144.652 37.774 144.678 38.3635C144.761 38.6726 144.859 39.1652 144.974 39.8411L145.302 41.3104C145.423 41.7638 145.541 42.1628 145.656 42.5076L146.018 43.7357C146.277 44.7042 146.658 45.7949 147.16 47.0077C147.532 47.9019 147.886 48.6463 148.222 49.2409C148.558 49.8355 148.941 50.3181 149.372 50.6886C149.813 51.1003 150.24 51.251 150.652 51.1406ZM158.994 49.6674C158.705 49.7447 158.467 49.5547 158.278 49.0973C158.286 48.9626 158.215 48.6171 158.066 48.0607C157.558 46.165 156.836 43.3439 155.898 39.5976C154.966 35.8718 154.279 33.1847 153.837 31.5362L153.601 30.4069L153.445 29.4548C153.407 29.3105 153.459 29.2191 153.604 29.1804C153.707 29.1528 153.859 29.1451 154.061 29.1572L154.162 29.1633C154.284 29.6166 154.384 30.0315 154.463 30.4079L154.786 31.6134L155.688 34.9826C155.974 35.9661 156.285 37.0864 156.622 38.3434C156.629 38.452 156.68 38.6814 156.773 39.0317L156.916 39.6891C157.006 40.1068 157.109 40.5319 157.225 40.9647C157.352 41.4386 157.478 41.8686 157.604 42.2546L157.991 43.5754L157.964 43.8476L157.987 43.8084C158.004 43.8702 158.004 43.9142 157.989 43.9403L158.022 44.0639C158.067 44.2288 158.136 44.3647 158.231 44.4718L158.933 47.464L158.983 47.6494C159.077 47.9998 159.142 48.2031 159.18 48.2594C159.207 48.3624 159.273 48.4001 159.376 48.3725L160.999 48.0036C161.473 47.8766 161.796 47.8014 161.966 47.7778C162.151 47.7281 162.265 47.6977 162.306 47.6867L162.399 47.6618C162.502 47.6342 162.621 47.6685 162.757 47.7645C162.888 47.8399 162.97 47.9394 163.003 48.0631C163.069 48.3104 162.94 48.4885 162.616 48.5974C162.26 48.6707 161.403 48.8895 160.042 49.2539L160.113 49.2683C159.907 49.3235 159.714 49.3862 159.534 49.4565C159.38 49.5419 159.2 49.6122 158.994 49.6674ZM166.691 47.605C166.403 47.6823 166.164 47.4922 165.975 47.0349C165.983 46.9002 165.913 46.5547 165.764 45.9983C165.256 44.1025 164.533 41.2814 163.595 37.5351C162.663 33.8094 161.976 31.1223 161.535 29.4738L161.298 28.3444L161.143 27.3923C161.104 27.2481 161.157 27.1566 161.301 27.118C161.404 27.0904 161.556 27.0826 161.758 27.0947L161.859 27.1008C161.981 27.5541 162.081 27.969 162.16 28.3455L162.483 29.5509L163.386 32.9201C163.671 33.9037 163.983 35.024 164.319 36.281C164.326 36.3895 164.377 36.6189 164.471 36.9693L164.614 37.6266C164.703 38.0443 164.806 38.4695 164.922 38.9022C165.049 39.3762 165.176 39.8061 165.301 40.1921L165.688 41.513L165.662 41.7851L165.684 41.7459C165.701 41.8077 165.702 41.8517 165.686 41.8778L165.72 42.0015C165.764 42.1663 165.833 42.3023 165.928 42.4094L166.631 45.4015L166.68 45.587C166.774 45.9373 166.84 46.1406 166.877 46.1969C166.904 46.2999 166.97 46.3376 167.073 46.31L168.697 45.9412C169.171 45.8142 169.493 45.7389 169.663 45.7153C169.849 45.6656 169.962 45.6353 170.003 45.6242L170.096 45.5994C170.199 45.5718 170.319 45.606 170.455 45.702C170.585 45.7774 170.667 45.877 170.7 46.0006C170.767 46.2479 170.638 46.426 170.313 46.535C169.958 46.6082 169.1 46.8271 167.74 47.1915L167.81 47.2058C167.604 47.261 167.411 47.3238 167.231 47.3941C167.077 47.4795 166.897 47.5498 166.691 47.605ZM179.635 43.8715C179.47 43.9157 179.313 43.6596 179.164 43.1032C178.701 41.7035 178.179 39.9218 177.6 37.7581C177.235 36.3981 176.92 35.1795 176.653 34.1025L175.707 30.4469C175.287 28.8808 174.727 26.9548 174.026 24.669C173.797 24.5538 173.649 24.3726 173.582 24.1253C173.544 23.9811 173.587 23.8147 173.714 23.6263C173.855 23.4118 173.998 23.2852 174.142 23.2465C174.307 23.2024 174.483 23.2434 174.672 23.3696L175.086 23.5567C175.227 23.5854 175.48 23.5837 175.847 23.5516C176.214 23.5196 176.478 23.5151 176.639 23.5383C176.992 23.6203 177.49 23.8293 178.132 24.1652C178.759 24.5273 179.182 24.7453 179.4 24.8192L179.386 24.8893C179.44 25.0074 179.666 25.2339 180.065 25.5687C180.374 25.8171 180.637 26.0559 180.853 26.2851C181.437 27.1447 181.93 28.3266 182.333 29.8308C182.405 30.0987 182.458 30.3385 182.493 30.55L182.692 31.2919L182.758 31.5392L182.81 31.8565C182.915 32.2481 183.059 32.5406 183.244 32.7341C183.297 33.4267 183.476 34.7148 183.782 36.5984C183.864 37.1508 183.913 37.745 183.929 38.3813C183.944 39.0175 183.902 39.559 183.801 40.0057C183.535 41.159 182.868 42.2544 181.799 43.2918L179.635 43.8715ZM181.435 42.4285C181.535 42.225 181.633 42.0552 181.729 41.919C181.729 41.919 181.788 41.8482 181.904 41.7065L182.094 41.4239C183.188 39.7392 183.247 37.0732 182.269 33.4258L182.112 32.8385C182.047 32.6792 181.99 32.5068 181.94 32.3214L180.98 29.2326C180.598 28.054 179.906 26.9143 178.905 25.8133C178.424 25.2574 177.864 24.8554 177.223 24.6074C176.598 24.3333 175.996 24.2736 175.419 24.4282C175.172 24.4945 175.559 26.4337 176.581 30.2459C177.762 34.6556 178.916 38.4656 180.041 41.6758L180.167 42.2713L180.307 42.3L180.477 42.6853L181.435 42.4285ZM193.124 40.7209C190.714 41.3669 188.492 37.8984 186.46 30.3152L186.17 29.2334C184.63 23.4842 184.601 20.4108 186.085 20.0133C186.188 19.9857 186.341 19.9779 186.543 19.99C187.263 20.04 187.951 20.0103 188.606 19.901C189.02 19.8785 189.519 20.1754 190.103 20.7917C190.735 21.4176 191.317 22.3108 191.848 23.4714C192.401 24.6265 192.848 25.8428 193.191 27.1204L193.17 27.2915C193.352 27.9715 193.526 28.5766 193.69 29.1069L194.218 30.9532C194.499 32.0041 194.712 32.963 194.856 33.83C195.075 35.1407 195.164 36.2984 195.124 37.303C195.088 37.909 194.995 38.4306 194.848 38.8678C194.72 39.2995 194.515 39.6859 194.231 40.027C193.967 40.3626 193.598 40.5939 193.124 40.7209ZM192.761 39.8577C193.564 39.6423 194.01 38.9155 194.098 37.6773C194.18 36.4184 194.102 35.1804 193.865 33.9631C193.616 32.7046 193.392 31.7045 193.193 30.9626C192.972 30.1384 192.585 28.9392 192.03 27.365C191.447 25.5998 191.07 24.3979 190.899 23.7591L190.709 23.5449L190.729 23.3738C190.486 22.4671 190.019 21.7531 189.327 21.2317C188.656 20.7048 187.959 20.538 187.238 20.7313C186.29 20.9853 185.845 21.5904 185.903 22.5468C185.944 22.867 186.022 23.321 186.135 23.9091C186.544 25.4339 186.761 26.4911 186.786 27.0806C186.869 27.3897 186.968 27.8823 187.083 28.5582L187.41 30.0275C187.532 30.4809 187.65 30.88 187.764 31.2247L188.126 32.4528C188.386 33.4213 188.766 34.512 189.268 35.7248C189.64 36.619 189.994 37.3634 190.33 37.958C190.666 38.5526 191.049 39.0352 191.48 39.4057C191.922 39.8175 192.349 39.9681 192.761 39.8577ZM207.388 37.3629C207.161 37.4236 206.984 37.3386 206.856 37.1079C206.728 36.8772 206.633 36.6485 206.573 36.4218L206.498 36.1436C206.195 35.3415 205.874 34.5991 205.537 33.9165C205.081 32.9565 204.747 32.2066 204.536 31.6668C204.326 31.127 203.962 30.1421 203.447 28.7122C202.643 26.454 201.998 24.7493 201.513 23.5983C200.919 22.1232 200.491 21.3101 200.23 21.1593L200.492 22.8781C200.654 23.8948 200.79 24.6092 200.901 25.0214C201.132 25.8868 201.323 26.7634 201.473 27.6509C201.622 28.5385 201.773 29.6796 201.926 31.0742L202.243 33.7391C202.233 33.7858 202.235 33.8738 202.247 34.0029C202.275 34.1059 202.3 34.2427 202.324 34.413C202.437 35.001 202.528 35.7939 202.597 36.7914C202.645 37.2201 202.641 37.5747 202.584 37.8551C202.567 38.1245 202.477 38.2812 202.312 38.3254C202.024 38.4027 201.662 38.0025 201.228 37.1249C200.863 36.3393 200.379 35.0667 199.775 33.3071C199.409 32.1903 199.131 31.3592 198.941 30.8139C198.751 30.2686 198.492 29.6313 198.164 28.902L197.783 27.9769C197.32 26.9083 197.005 26.1426 196.836 25.6797C196.668 25.2168 196.442 24.5375 196.158 23.6419C195.955 22.9674 195.761 22.3678 195.577 21.843C195.386 21.2977 195.16 20.74 194.896 20.1701C194.676 19.677 194.396 19.1668 194.056 18.6395C194.094 18.4526 194.237 18.326 194.484 18.2597C194.731 18.1935 194.97 18.3835 195.2 18.8299C195.243 18.9068 195.384 19.3106 195.624 20.0414L195.732 20.4432C195.868 20.8704 196.652 22.847 198.082 26.3728C199.378 29.5594 200.335 32.1851 200.955 34.2498C201.087 34.4131 201.213 34.6775 201.333 35.0429C201.485 35.444 201.611 35.7084 201.711 35.8361L201.742 35.8278L201.367 32.4497C201.29 32.1613 201.219 31.6501 201.155 30.9164C201.007 29.7856 200.843 28.6809 200.665 27.6024C200.431 26.3178 200.2 25.2091 199.972 24.2763C199.636 22.7761 199.443 21.7676 199.393 21.251L199.279 20.4534C199.152 19.6483 199.091 19.256 199.096 19.2766L199.586 18.8803C199.731 18.8416 199.865 18.8497 199.99 18.9045C200.116 18.9593 200.195 19.0486 200.228 19.1722C200.244 19.234 200.236 19.3247 200.201 19.4443C201.771 22.0053 203.219 25.1842 204.546 28.9809L204.914 30.108C205.183 31.0298 205.468 31.8038 205.768 32.4301C206.035 32.9327 206.253 33.2938 206.423 33.5135C206.482 32.7466 206.23 30.9811 205.666 28.2169C205.102 25.4527 204.552 23.0711 204.017 21.0723C203.917 20.7014 203.777 19.8887 203.595 18.6343C203.469 17.5859 203.326 16.7629 203.166 16.1654C203.116 15.9799 203.028 15.8158 202.901 15.673C202.813 15.3433 202.975 15.1233 203.387 15.0128C203.552 14.9687 203.66 14.9617 203.713 14.9918C203.785 15.0165 203.844 15.1112 203.888 15.2761C204.043 15.8531 204.11 16.3099 204.09 16.6466L204.201 16.8155C204.274 17.7457 204.451 18.7363 204.732 19.7873C204.782 19.9727 204.833 20.0805 204.885 20.1107L204.866 20.7786L205.016 20.9701C204.988 21.1103 204.99 21.2422 205.023 21.3659L205.273 21.9283L205.213 22.0768C205.407 22.798 205.755 24.4274 206.258 26.9649C206.761 29.5025 207.063 31.1223 207.163 31.8244L207.201 32.7087C207.193 33.1745 207.222 33.5311 207.289 33.7784C207.465 34.4378 207.603 35.0746 207.701 35.6887C207.791 36.1064 207.805 36.4891 207.744 36.8368C207.671 37.1433 207.553 37.3187 207.388 37.3629ZM206.495 33.6598L206.456 33.6372L206.464 33.6681L206.495 33.6598ZM221.031 32.7465C220.866 32.7907 220.726 32.762 220.61 32.6604C220.515 32.5533 220.404 32.3844 220.276 32.1537C220.211 31.9944 220.131 31.8612 220.036 31.7541L220.042 31.6531C219.618 30.7288 218.95 29.6378 218.039 28.3801L217.052 26.9219C217 26.8917 216.663 26.4187 216.042 25.5029L215.596 24.8273C212.207 19.5956 210.211 16.8063 209.61 16.4594C209.595 17.0599 209.705 17.8032 209.943 18.6893C210.07 19.1633 210.191 19.5726 210.305 19.9174L210.659 21.1146L210.827 21.8647C210.867 22.0969 210.923 22.3469 210.995 22.6148C211.116 23.0682 211.242 23.4542 211.371 23.7728C211.589 24.4212 211.698 24.7454 211.698 24.7454L211.605 24.7702C212.527 28.2115 213.108 30.088 213.346 30.3996L214.091 33.1815C214.218 33.3242 214.317 33.5296 214.389 33.7975C214.433 33.9623 214.41 34.1231 214.319 34.2799C214.249 34.4311 214.132 34.5288 213.967 34.573C213.534 34.689 213.169 34.1906 212.871 33.0778L212.667 32.0721C212.626 31.752 212.555 31.4065 212.456 31.0356C212.191 30.0465 211.762 28.5711 211.171 26.6094C210.579 24.6478 210.15 23.1724 209.885 22.1833C209.725 21.5857 209.51 20.6604 209.241 19.4075C208.977 18.1751 208.765 17.2602 208.605 16.6626L208.497 16.2608C208.226 15.251 208.235 14.5419 208.523 14.1335L208.641 14.2013L208.933 14.0567C209.021 14.0552 209.131 14.0922 209.261 14.1676C209.366 14.228 209.432 14.3096 209.459 14.4127L209.571 14.5816C209.582 14.6228 209.593 14.664 209.604 14.7052C209.63 14.7203 209.643 14.7278 209.643 14.7278C210.365 16.1026 211.656 17.9541 213.517 20.2825C215.437 22.7497 216.663 24.3979 217.194 25.2273C217.593 25.8933 217.929 26.488 218.202 27.0112C219.063 28.6578 219.888 29.8833 220.678 30.6877L220.715 30.5784C219.963 25.8768 218.696 20.198 216.912 13.5421L216.782 13.1795C216.734 13.082 216.687 12.9508 216.643 12.786C216.527 12.3532 216.614 12.0982 216.902 12.0209C217.088 11.9712 217.267 12.0225 217.44 12.1749C217.634 12.3217 217.762 12.5084 217.822 12.7351L218.377 14.806L218.289 15.0947C218.813 17.0523 219.561 20.2973 220.533 24.8296C221.504 29.3619 221.94 31.8515 221.838 32.2982L221.346 32.5627L221.354 32.5936L221.315 32.5709L221.031 32.7465Z" fill="#454545"/>
<g clip-path="url(#clip0_106_25)">
<path d="M123.565 22.0863C117.942 17.4464 111.984 12.9071 104.449 12.3156C97.7149 11.7923 91.0724 14.2071 85.587 17.9861C79.6156 22.1034 75.1364 28.1652 72.1428 34.7201C70.6024 38.0921 69.4062 41.6002 68.4882 45.1902C68.0397 46.9733 67.6508 48.7798 67.3203 50.5872C66.9897 52.3947 66.6518 54.2294 66.9675 56.0563C67.2449 57.6167 68.1755 59.0886 69.6199 59.7904C71.1477 60.5365 72.8659 60.0525 74.2138 59.1473C77.2585 57.1007 79.1165 53.199 80.0972 49.7576C82.005 43.102 80.9648 34.2802 74.6816 30.2175C68.3985 26.1548 60.2615 28.601 54.5193 32.6553C48.7771 36.7095 43.445 42.8941 39.3416 48.9468C31.5499 60.4312 26.7243 73.9329 25.8322 87.8079C25.7158 89.5263 25.6801 91.2443 25.7026 92.9634C25.7226 94.9379 29.1176 92.4582 29.1251 91.0913C29.1665 78.943 32.0145 66.9758 37.7082 56.2176C40.5212 50.91 43.9671 45.9183 48.0344 41.5031C52.4164 36.733 57.7392 31.8124 64.5687 31.5413C67.6393 31.4198 70.7615 32.3076 73.0729 34.391C75.3843 36.4745 76.8558 39.6432 77.3735 42.82C77.8913 45.9967 77.5171 49.1687 76.471 52.1168C76.0227 53.3802 75.439 54.6294 74.6862 55.7453C74.3362 56.2591 74.0295 56.748 73.3686 56.7832C72.5873 56.8301 71.8769 56.3396 71.3647 55.7924C69.2571 53.522 70.5431 49.5694 71.1043 46.9014C71.7809 43.6933 72.6661 40.5264 73.8121 37.4514C75.9155 31.8146 79.0366 26.3406 83.5982 22.3214C88.3808 18.1052 94.7311 15.5242 101.127 15.6421C108.778 15.7743 114.892 20.443 120.555 25.0716C121.732 26.0314 124.636 22.9808 123.547 22.074L123.555 22.069L123.565 22.0863Z" fill="black"/>
<path d="M34.8284 81.0897L29.9017 92.2364L27.5268 97.6029C26.8636 99.0942 26.3312 100.972 25.0809 102.086L27.1358 101.166C25.5471 100.374 24.7546 98.4413 24.0148 96.94C23.1824 95.2382 22.4193 93.4964 21.6475 91.7597C20.0989 88.2774 18.5319 84.5633 16.048 81.6211C15.1078 80.5127 12.2467 83.377 13.056 84.6187C15.3351 88.1064 17.099 91.7415 18.7829 95.5381C19.6161 97.4012 20.4406 99.2692 21.4136 101.075C22.2053 102.546 23.0332 103.8 24.5623 104.568C25.2087 104.888 26.2045 104.013 26.6172 103.647C28.1652 102.269 29.0602 100.459 29.8841 98.5859C30.7953 96.5241 31.7064 94.4623 32.6263 92.3954L38.0969 80.0109C38.4714 79.1596 37.7673 78.7001 37.0055 78.9205C35.9885 79.219 35.2349 80.1737 34.8247 81.1033L34.8284 81.0897Z" fill="black"/>
</g>
<defs>
<clipPath id="clip0_106_25">
<rect width="128.01" height="47.78" fill="white" transform="translate(134.75 41.3787) rotate(150)"/>
</clipPath>
</defs>
</svg>
